<?xml version="1.0" encoding="utf-8"?>
<!-- Generator: Adobe Illustrator 24.3.0, SVG Export Plug-In . SVG Version: 6.00 Build 0)  -->
<svg version="1.1" id="Layer_2" xmlns="http://www.w3.org/2000/svg" xmlns:xlink="http://www.w3.org/1999/xlink" x="0px" y="0px"
	 viewBox="0 0 81 90.6" style="enable-background:new 0 0 81 90.6;" xml:space="preserve">
<style type="text/css">
	.st0{fill:#333333;}
</style>
<circle class="st0" cx="16.4" cy="46.8" r="7.7"/>
<g>
	<path class="st0" d="M31.3,11.2c0-0.9,0.1-1.8,0.3-2.7c-2.5,2.4-4.1,5.7-4.1,9.5c0,7.2,5.9,13.1,13.1,13.1c4.2,0,7.9-2,10.3-5.1
		c-1.3,0.4-2.7,0.6-4.2,0.6C38.1,26.6,31.3,19.7,31.3,11.2z"/>
</g>
<polygon class="st0" points="68.7,7.6 71.9,6 71.3,9.5 73.9,12.1 70.3,12.6 68.7,15.9 67.1,12.6 63.5,12.1 66.1,9.5 65.5,6 "/>
<polygon class="st0" points="10.9,20.9 12.9,19.9 12.5,22.1 14.2,23.7 11.9,24 10.9,26 9.9,24 7.7,23.7 9.3,22.1 8.9,19.9 "/>
<g>
	<path class="st0" d="M24.8,58c-7.6,0-14.4,0-19,0c0-5.5,0-14.2,0-23.4c0-0.8-0.4-1.1-1.1-1.1c-0.2,0-3.6,0-3.8,0
		c-0.5,0-0.8,0.2-0.8,0.7c0,11.3,0,22.6,0,27.1c0,0,0,0.5,0,2c0,2.4,0,7.3,0,16.3c0,0.5,0.4,0.7,0.8,0.7c0.2,0,3.6,0,3.8,0
		c0.7,0,1.1-0.2,1.1-1.1c0-5,0-8.8,0-11.5c4.5,0,11.3,0,19,0V58z"/>
	<path class="st0" d="M75.3,42.1c-3.2,0-41.1,0-47.6,0V58v2.9v6.9c17.2,0,37.8,0,47.6,0c0,2.8,0,6.6,0,11.9c0,0.5,0.4,0.7,0.8,0.7
		c0.2,0,3.6,0,3.8,0c0.7,0,1.1-0.2,1.1-1.1c0-15.1,0-18.3,0-18.3l0,0v0h0c0,0,0-9,0-12.8S78.8,42.1,75.3,42.1z"/>
</g>
</svg>
