<?xml version="1.0" encoding="utf-8"?>
<!-- Generator: Adobe Illustrator 24.3.0, SVG Export Plug-In . SVG Version: 6.00 Build 0)  -->
<svg version="1.1" id="Layer_1" xmlns="http://www.w3.org/2000/svg" xmlns:xlink="http://www.w3.org/1999/xlink" x="0px" y="0px"
	 viewBox="0 0 81 90.6" style="enable-background:new 0 0 81 90.6;" xml:space="preserve">
<style type="text/css">
	.st0{fill-rule:evenodd;clip-rule:evenodd;fill:#333333;}
</style>
<path class="st0" d="M22.7,35.8c-5.2-1.5-6.3-3-6.3-8.2c0-8.4,0-16.7,0-25.1c0-0.8,0.3-1.8,0.8-2.2c1.1-0.9,2.5,0.1,2.5,1.8
	c0.1,3.6,0,7.2,0,10.8c0,3,0,6,0,9.1c1,0,1.8,0,2.9,0c0-0.7,0-1.4,0-2.1c0-5.5,0-11.1,0-16.6c0-0.4-0.1-0.9,0-1.2
	c0.5-0.7,1-1.8,1.6-1.9c1.3-0.3,1.6,0.9,1.6,1.9c0,5.4,0,10.8,0,16.2c0,1.2,0,2.3,0,3.6c1.1,0,1.9,0,3,0c0-0.7,0.1-1.4,0.1-2.1
	c0-5.6,0-11.2,0-16.8c0-0.5-0.1-1.1,0.1-1.5C29.4,1,30,0.3,30.5,0.2c0.5,0,1.2,0.6,1.5,1.1c0.3,0.7,0.2,1.5,0.2,2.3
	c0,6.1,0,12.1,0,18.3c1,0,1.9,0,3,0c0-0.8,0-1.5,0-2.2c0-5.8,0-11.6,0-17.4c0-1.1,0.1-2.2,1.5-2.3c1.6-0.1,1.8,1.1,1.8,2.3
	c0,8.9,0.1,17.9,0,26.8c0,3.8-2.4,5.8-6.1,6.6c0,0.9,0,1.7,0,2.4c0,15.3,0,30.7,0,46c0,1.1-0.1,2.2-0.4,3.3c-0.6,2-2.3,3.1-4.5,3.1
	c-2.2,0-3.8-1.2-4.3-3.2c-0.3-1.1-0.4-2.3-0.4-3.5c0-15.2,0-30.4,0-45.6C22.7,37.4,22.7,36.7,22.7,35.8z M51.4,54.5
	c3.6,0,3.3-0.4,3.3,3.4c0,9.1,0,18.3,0,27.4c0,2.2,0.7,3.8,2.8,4.7c3.4,1.5,6.6-0.8,6.6-4.9c0-25.6,0-51.3,0-76.9c0-0.4,0-0.8,0-1.2
	c-0.2-3.9-3.1-6.8-6.8-7c-4.1-0.2-7,2.2-7.6,6.3c-0.1,1-0.2,1.9-0.2,2.9c0,14.2,0,28.4,0,42.7c0,0.8,0,1.5,0,2.5
	C50.3,54.5,50.8,54.5,51.4,54.5z"/>
</svg>
