<?xml version="1.0" encoding="utf-8"?>
<!-- Generator: Adobe Illustrator 16.0.0, SVG Export Plug-In . SVG Version: 6.00 Build 0)  -->
<!DOCTYPE svg PUBLIC "-//W3C//DTD SVG 1.1//EN" "http://www.w3.org/Graphics/SVG/1.1/DTD/svg11.dtd">
<svg version="1.1" id="Layer_4" xmlns="http://www.w3.org/2000/svg" xmlns:xlink="http://www.w3.org/1999/xlink" x="0px" y="0px"
	 width="28px" height="28px" viewBox="0 0 28 28" enable-background="new 0 0 28 28" xml:space="preserve">
<g>
	<path d="M15.54,5.021l-1.539-4.67l-1.54,4.669C6.939,5.773,2.82,10.521,2.82,16.277c0,6.281,4.897,11.372,11.177,11.372
		c6.282,0,11.291-5.091,11.291-11.372C25.288,10.522,21.077,5.776,15.54,5.021z M13.113,24.763
		c-4.015-0.419-7.177-3.581-7.595-7.601h7.595V24.763z M13.113,15.392H5.518c0.418-4.016,3.582-7.177,7.597-7.598v7.598H13.113z
		 M14.885,7.793c4.015,0.419,7.181,3.582,7.597,7.598h-7.597V7.793z M14.885,24.763v-7.601h7.597
		C22.062,21.182,18.899,24.344,14.885,24.763z"/>
</g>
</svg>
