<?xml version="1.0" encoding="utf-8"?>
<!-- Generator: Adobe Illustrator 24.3.0, SVG Export Plug-In . SVG Version: 6.00 Build 0)  -->
<svg version="1.1" id="Layer_1" xmlns="http://www.w3.org/2000/svg" xmlns:xlink="http://www.w3.org/1999/xlink" x="0px" y="0px"
	 viewBox="0 0 81 90.6" style="enable-background:new 0 0 81 90.6;" xml:space="preserve">
<style type="text/css">
	.st0{fill:#333333;}
</style>
<path class="st0" d="M40.4,4.2c0.1,0,0.2,0,0.3,0c0.4,0.5,0.7,1,1.1,1.4c12.7,12.7,25.3,25.3,38,38c0.4,0.4,0.7,0.8,1.3,1.4
	c-2.9,0-5.5,0-8,0c-2,0-2,0-2,2c0,13,0,26,0,39c-20.3,0-40.6,0-60.9,0c-0.1-0.7-0.2-1.3-0.2-2c0-11.9,0-23.8,0-35.6
	c0-3.4,0-3.4-3.3-3.4c-2.1,0-4.2,0-6.7,0c0.7-0.7,1.1-1.1,1.5-1.5c12.7-12.7,25.3-25.3,38-38C39.7,5,40,4.6,40.4,4.2z M60.9,75.6
	c0-0.4,0.1-0.8,0.1-1.1c0-11.4,0-22.9,0-34.3c0-0.7-0.6-1.5-1.1-1.9c-6-4.3-12.2-8.6-18.2-12.9c-0.9-0.6-1.4-0.6-2.3,0
	c-6,4.3-12,8.5-18,12.7c-1,0.7-1.4,1.4-1.4,2.6c0,11,0,22,0,33.1c0,0.6,0,1.2,0,1.9c0.6,0,1,0.1,1.4,0.1c4.2,0,8.4,0,12.5,0
	c1.3,0,1.5-0.5,1.5-1.6c0-3.9,0-7.9,0-11.8c0-0.6,0.1-1.2,0.1-1.8c3.4,0,6.6,0,10,0c0,5.1,0,10.1,0,15.1
	C50.7,75.6,55.8,75.6,60.9,75.6z"/>
</svg>
