<?xml version="1.0" encoding="utf-8"?>
<!-- Generator: Adobe Illustrator 24.3.0, SVG Export Plug-In . SVG Version: 6.00 Build 0)  -->
<svg version="1.1" id="Layer_1" xmlns="http://www.w3.org/2000/svg" xmlns:xlink="http://www.w3.org/1999/xlink" x="0px" y="0px"
	 viewBox="0 0 81 90.6" style="enable-background:new 0 0 81 90.6;" xml:space="preserve">
<style type="text/css">
	.st0{fill:#333333;}
</style>
<path class="st0" d="M75.4,36.5c0,5.6,0,11.2,0,16.8c-0.8,0-1.5,0.1-2.3,0.1c-7.3,0-14.6,0-21.9,0c-0.5,0-1,0-1.6,0
	c0,0.7,0,1.2,0,1.7c0,7.3,0,14.5,0,21.8c0,0.8-0.1,1.5-0.1,2.3c-5.6,0-11.2,0-16.8,0c0-0.1,0.1-0.2,0.1-0.2c0-8.2,0-16.3,0-24.5
	c0-0.3-0.1-0.6-0.1-1c-0.4,0-0.6-0.1-0.9-0.1c-7.9,0-15.9,0-23.9,0c-0.3,0-0.6,0.1-0.9,0.1c0-5.7,0-11.3,0-17c0.2,0,0.4,0.1,0.6,0.1
	c8,0,16,0,24.1,0c0.3,0,0.6,0,1-0.1c0-1.1,0-2.1,0-3.1c0-7.5,0-15-0.1-22.5c5.7,0,11.3,0,17,0c0,0.3-0.1,0.6-0.1,0.9
	c0,8,0,15.9,0,23.9c0,0.3,0.1,0.6,0.1,1c0.5,0,1,0,1.4,0c4.8,0,9.6,0,14.5,0C68.9,36.5,72.1,36.5,75.4,36.5z"/>
</svg>
