<?xml version="1.0" encoding="utf-8"?>
<!-- Generator: Adobe Illustrator 16.0.0, SVG Export Plug-In . SVG Version: 6.00 Build 0)  -->
<!DOCTYPE svg PUBLIC "-//W3C//DTD SVG 1.1//EN" "http://www.w3.org/Graphics/SVG/1.1/DTD/svg11.dtd">
<svg version="1.1" id="Layer_1" xmlns="http://www.w3.org/2000/svg" xmlns:xlink="http://www.w3.org/1999/xlink" x="0px" y="0px"
	 width="512px" height="512px" viewBox="0 0 512 512" enable-background="new 0 0 512 512" xml:space="preserve">
<g>
	<path fill="#FFFFFF" d="M401.645,227.231c9.49,46.99-4.063,97.606-40.615,134.042c-57.981,57.936-152.078,57.936-210.106,0
		c-58.05-57.914-58.029-151.755,0-209.644c53.815-53.663,139.157-56.891,196.958-11.513l-19.986,19.003l96.178,27.062
		l-22.887-96.646l-0.019-0.08l-23.628,22.465c-76.24-64.584-185.226-58.772-255.296,11.1c-73.868,73.706-73.868,193.157,0,266.84
		c73.891,73.729,193.618,73.729,267.487,0c41.748-41.564,59.852-97.723,54.518-151.962L401.645,227.231z"/>
	<path fill="none" d="M318.002,15.722c-1.982-0.51-3.974-0.996-5.974-1.458c-6.002-1.386-12.087-2.553-18.247-3.495
		C281.463,8.887,268.846,7.911,256,7.911c-12.845,0-25.463,0.976-37.782,2.858c-6.16,0.941-12.245,2.109-18.247,3.495
		c-2,0.461-3.992,0.948-5.974,1.458C90.948,42.235,13.805,133.294,8.232,243.235c-0.214,4.229-0.323,8.485-0.323,12.767
		C7.909,393.02,118.983,504.093,256,504.093c137.017,0,248.091-111.073,248.091-248.091c0-4.282-0.108-8.538-0.323-12.767
		C498.195,133.294,421.052,42.235,318.002,15.722z"/>
</g>
</svg>
