<?xml version="1.0" encoding="utf-8"?>
<!-- Generator: Adobe Illustrator 24.3.0, SVG Export Plug-In . SVG Version: 6.00 Build 0)  -->
<svg version="1.1" id="Layer_1" xmlns="http://www.w3.org/2000/svg" xmlns:xlink="http://www.w3.org/1999/xlink" x="0px" y="0px"
	 viewBox="0 0 81 90.6" style="enable-background:new 0 0 81 90.6;" xml:space="preserve">
<style type="text/css">
	.st0{fill:#333333;}
</style>
<g>
	<path class="st0" d="M81.3,14.6c0-0.2,0-0.4,0-0.7c-1,0-0.6,0-0.8,0c-3.3,0-6.8,0-10.1,0c-0.9,0-1.1,0.1-1.1,1
		c-0.1,1.3-0.1,2.7-0.3,4c-0.6,3.2-3.6,5.9-6.8,6.3c-2.5,0.3-4.8,0-6.8-1.6c-2.1-1.7-3.3-3.9-3.4-6.7c0-0.6,0-1.2,0-1.9
		c0-0.8-0.2-1.1-1-1.1c-0.5,0-1.1,0-1.6,0c-6.4,0-12.7,0-19.1,0c-1.2,0-1.2,0-1.3,1.2c-0.2,1.5-0.3,3-0.6,4.4
		c-0.9,3.6-4,5.8-7.9,5.8c-4.4,0.1-7.8-2.7-8.6-7c-0.2-1-0.1-2.1-0.2-3.2c0-0.2,0-0.4,0-0.6c0-0.4-0.3-0.7-0.7-0.7
		c-0.8,0-1.7,0-2.5,0c-2.2,0-4.4,0-6.6-0.1c-0.1,0-0.1,0-0.3,0c-0.6-0.1-1.2,0-1.2,0.6c0,23.6,0,47.1,0,70.7c0,0.5,0.4,0.7,0.8,0.7
		c0.2,0,0.2,0.1,0.4,0.1c25.8,0,51.7,0,77.5,0c0.2,0,0.5-0.1,0.7-0.1c0.7,0,1.6-0.2,1.6-1.1c0-15.1,0-30.2,0-45.4c0-0.2,0-0.4,0-0.7
		C81.3,30.6,81.3,22.6,81.3,14.6z M75,79.6c-0.1,0.2-0.4,0.4-0.6,0.6c-0.2,0.1-0.4,0-0.7,0C68,80.2,62.2,80,56.5,80
		c-16.6,0-33.2-0.2-49.9-0.2c-0.2,0-0.3,0-0.3,0s0-0.1,0-0.2c0-14.6-0.2-29.1-0.2-43.7c0-0.4-0.1-0.8-0.1-1.2c0-0.4,0.2-0.6,0.6-0.6
		c0.2,0,0.4,0,0.6,0c15.7,0,31.3,0,47,0c6.5,0,12.9,0,19.4,0c0.2,0,0.4,0,0.6,0c0.6,0,0.9,0.3,0.9,0.9c0,0.2,0,0.4,0,0.6
		c0,12.4,0,24.8,0,37.3c0,2,0,4,0,6.1C75.1,79.1,75.1,79.3,75,79.6z"/>
	<path class="st0" d="M55.6,7C55.3,7.7,55,8.6,55,9.4c-0.1,2.3-0.3,4.6,0.1,6.9c0.2,1.2,0.5,2.4,1.4,3.3c1.7,1.8,4.4,2.3,6.7,1.1
		c1.7-0.9,2.9-2.3,2.9-4.3c0.1-2.4,0-4.7,0-7.1c0-2.4-1.8-4.7-4.2-5.2c-0.3-0.1-0.5-0.3-0.8-0.3c-0.3,0-0.6,0-1,0
		c-0.1,0-0.3,0.2-0.4,0.2C57.9,4.2,56.4,5.2,55.6,7z"/>
	<path class="st0" d="M14.7,8.7c-0.2,2.6-0.2,5.2,0.2,7.8c0.4,2.9,1.9,4.4,4.7,4.7c2.2,0.2,4.4-0.6,5.5-2.8c0.5-1,0.9-2.1,0.8-3.2
		c0-2-0.2-4-0.2-6.1c0-2.3-1.7-4.4-3.9-5.1C21.5,4,21.3,3.8,21,3.8c-0.4,0-0.9,0-1.3,0c-0.1,0-0.2,0.2-0.4,0.2
		C16.7,4.4,14.8,6.3,14.7,8.7z"/>
	<path class="st0" d="M79.8,85.7c-0.2,0-0.5,0.1-0.7,0.1c-25.8,0-51.7,0-77.5,0c-0.2,0-0.2,0-0.4-0.1c-0.5,0-0.8-0.2-0.8-0.7
		c0,0.3,0,0.7,0,0.7c27,0,54,0,81,0c0,0,0-0.7,0-1.1C81.3,85.5,80.5,85.7,79.8,85.7z"/>
	<path class="st0" d="M51.9,67.1c-1.2,0-2.4,0-3.7,0c-1.2,0-2.4,0-3.6,0c-0.8,0-1,0.3-1.1,1c0,2,0,4,0,6c0,0.8,0.3,1.1,1.1,1.1
		c2.4,0,4.7,0,7.1,0c0.7,0,0.9-0.2,0.9-0.8c0-2.2,0-4.3,0-6.4C52.7,67.3,52.5,67.1,51.9,67.1z"/>
	<path class="st0" d="M51.8,53.6c-1.2,0-2.4,0-3.6,0c-1.2,0-2.4,0-3.7,0c-0.7,0-1,0.3-1,1c0,2,0,3.9,0,5.9c0,0.8,0.3,1,1,1
		c2.4,0,4.8,0,7.2,0c0.7,0,0.9-0.2,0.9-0.9c0-2.1,0-4.1,0-6.2C52.7,53.8,52.5,53.6,51.8,53.6z"/>
	<path class="st0" d="M44.5,48.2c1.2,0,2.4,0,3.7,0c1.3,0,2.5,0,3.8,0c0.6,0,0.8-0.1,0.8-0.7c0-2.2,0-4.3-0.1-6.5
		c0-0.5-0.4-0.8-0.8-0.8c-2.5,0-4.9,0-7.4,0c-0.7,0-0.9,0.3-0.9,0.9c0,2,0,4,0,6.1C43.6,48,43.8,48.2,44.5,48.2z"/>
	<path class="st0" d="M22.9,67.1c-1.2,0-2.5,0-3.5,0c0,0,0,0,0,0c-1,0-1.3,0-1.9,0c-0.6,0-1.2,0-1.8,0c-0.8,0-1.1,0.2-1.1,1
		c0,2.1,0,4.1,0,6.2c0,0.7,0.3,1,1,1c2.4,0,4.8,0,7.2,0c0.6,0,0.8-0.2,0.8-0.8c0-2.2,0.1-4.4,0.1-6.5C23.5,67.3,23.4,67.1,22.9,67.1
		z"/>
	<path class="st0" d="M37.1,67.1c-1.2,0-2.4,0-3.6,0c-1.2,0-2.5,0-3.7,0c-0.6,0-0.8,0.2-0.8,0.7c0,2.2,0,4.4,0,6.5
		c0,0.6,0.2,0.8,0.8,0.8c2.4,0,4.9,0,7.3,0c0.6,0,0.8-0.2,0.8-0.8c0-2.1,0.1-4.3,0.1-6.4C38,67.3,37.8,67.1,37.1,67.1z"/>
	<path class="st0" d="M65.7,67.1c-1.2,0-2.4,0-3.4,0c0,0,0,0,0,0c-2,0-2.7,0-3.9,0c-0.6,0-0.8,0.2-0.9,0.7c0,0.1-0.1,0.3-0.1,0.4
		c0,1.9,0,3.9,0,5.8c0,0.2,0,0.3,0,0.5c0.1,0.4,0.3,0.6,0.7,0.6c0.4,0,0.8,0,1.2,0c2.1,0,4.1,0,6.2,0c0.6,0,0.8-0.1,0.8-0.7
		c0-2.2,0.2-4.4,0.2-6.5C66.5,67.3,66.4,67.1,65.7,67.1z"/>
	<path class="st0" d="M65.2,40.2c-0.5,0-1,0-1.4,0c-1.8,0-3.6,0-5.3,0.1c-0.6,0-1,0.3-1,0.9c0,2.1,0,4.1,0,6.2
		c0,0.7,0.2,0.9,0.9,0.9c1.2,0,2.4,0,3.7,0c1.2,0,2.4,0,3.6,0c0.7,0,1-0.3,1-1c0-2,0-3.9,0-5.9C66.4,40.5,66.1,40.2,65.2,40.2z"/>
	<path class="st0" d="M65.4,53.5c-2.3,0-4.7,0-7,0c-0.8,0-1,0.2-1,1c0,2,0,4,0,6.1c0,0.7,0.3,0.9,0.9,0.9c1.2,0,2.4,0,3.6,0
		c1.2,0,2.5,0,3.7,0c0.6,0,0.8-0.1,0.8-0.8c0-1,0-2,0-3c0-1,0.1-2.1,0.1-3.1C66.4,53.8,66.1,53.5,65.4,53.5z"/>
	<path class="st0" d="M29.8,61.5c1.2,0,2.5,0,3.5,0c0,0,0,0,0,0c1,0,2.5,0,3.7,0c0.6,0,0.9-0.2,0.9-0.8c0-2.1,0-4.2,0-6.3
		c0-0.7-0.2-0.9-0.9-0.9c-2.4,0-4.7,0-7.1,0c-0.7,0-0.9,0.2-0.9,0.9c0,2.1-0.1,4.1,0,6.2C29,61.3,29.1,61.5,29.8,61.5z"/>
	<path class="st0" d="M30.2,48c2.3,0,4.5-0.2,6.8-0.2c0.3,0,0.6,0,1,0c0-2,0-4.4,0-6.7c0-0.9-0.1-0.9-1.1-0.9
		c-2.2,0-4.5,0.1-6.7,0.1c-0.8,0-1.1,0.2-1.1,1c0,2,0,3.9,0,5.9C29.1,48,29.3,48,30.2,48z"/>
	<path class="st0" d="M15.4,61.4c2.2,0,4.3,0,6.5,0.1c0.5,0,1,0,1.5,0c0-2.5,0-4.8,0-7.1c0-0.5-0.3-0.9-0.9-0.9c-2.4,0-4.8,0-7.2,0
		c-0.6,0-0.8,0.3-0.8,0.8c0,2.1,0,4.1,0,6.2C14.6,61.1,14.9,61.4,15.4,61.4z"/>
</g>
</svg>
